<svg id="icons" enable-background="new 0 0 64 64" height="512" viewBox="0 0 64 64" width="512" xmlns="http://www.w3.org/2000/svg"><path d="m40 20.002h16v10h-16z" fill="#5d9cec"/><path d="m40 41.002h16v4h-16z" fill="#545c66"/><path d="m40 38.002h16v3h-16z" fill="#545c66"/><path d="m40 45.002h16v9h-16z" fill="#e6e9ed"/><path d="m27 48.002c.55 0 1 .451 1 1v2c0 .551-.45 1-1 1h-8c-.55 0-1-.449-1-1v-2c0-.549.45-1 1-1z" fill="#ccd1d9"/><path d="m61.5 35.002c.83 0 1.5.67 1.5 1.5s-.67 1.5-1.5 1.5h-5.5-16-20.5c-.83 0-1.5-.67-1.5-1.5s.67-1.5 1.5-1.5z" fill="#e6e9ed"/><path d="m27 22c.55 0 1 .451 1 1v2c0 .551-.45 1-1 1h-8c-.55 0-1-.449-1-1v-2c0-.549.45-1 1-1z" fill="#ccd1d9"/><path d="m4 27.002.17.119c-2 2.781-3.17 6.201-3.17 9.881v-28h3z" fill="#ccd1d9"/><path d="m28 20.002v3h-10c-7.73 0-14 6.27-14 14s6.27 14 14 14h10v3h-10c-9.39 0-17-7.611-17-17 0-3.68 1.17-7.1 3.17-9.881 3.08-4.311 8.13-7.119 13.83-7.119z" fill="#e6e9ed"/><g fill="#656d78"><path d="m55.997 40.996h-16c-.553 0-1-.447-1-1s.447-1 1-1h16c.553 0 1 .447 1 1s-.447 1-1 1z"/><path d="m55.997 43.996h-16c-.553 0-1-.447-1-1s.447-1 1-1h16c.553 0 1 .447 1 1s-.447 1-1 1z"/><path d="m63 56h-62c-.553 0-1-.447-1-1s.447-1 1-1h62c.553 0 1 .447 1 1s-.447 1-1 1z"/></g><path d="m48.042 20.998c-.553 0-1-.447-1-1v-10.998c0-.553.447-1 1-1s1 .447 1 1v10.998c0 .553-.447 1-1 1z" fill="#545c66"/><path d="m55.998 30.996h-15.994c-.553 0-1-.447-1-1v-9.998c0-.553.447-1 1-1h15.994c.553 0 1 .447 1 1v9.998c0 .553-.447 1-1 1zm-14.994-2h13.994v-7.998h-13.994z" fill="#656d78"/><path d="m63 10h-62c-.553 0-1-.447-1-1s.447-1 1-1h62c.553 0 1 .447 1 1s-.447 1-1 1z" fill="#e6e9ed"/></svg>