<svg height="512" viewBox="0 0 64 64" width="512" xmlns="http://www.w3.org/2000/svg"><g id="Speech_Recognition" data-name="Speech Recognition"><path d="m30 40h4v15h-4z" fill="#acabb1"/><circle cx="59" cy="17" fill="#ff5023" r="2"/><circle cx="56" cy="7" fill="#ff5023" r="2"/><circle cx="56" cy="27" fill="#ff5023" r="2"/><path d="m34 47.87v4.03a20.05 20.05 0 0 1 -4 0v-4.03a15.45 15.45 0 0 0 4 0z" fill="#898890"/><path d="m43 57v2a2.006 2.006 0 0 1 -2 2h-18a2.006 2.006 0 0 1 -2-2v-2a2.006 2.006 0 0 1 2-2h18a2.006 2.006 0 0 1 2 2z" fill="#898890"/><path d="m34 40v2.82a11.2 11.2 0 0 1 -4 0v-2.82z" fill="#898890"/><circle cx="8" cy="7" fill="#ff5023" r="2"/><circle cx="8" cy="27" fill="#ff5023" r="2"/><circle cx="5" cy="17" fill="#ff5023" r="2"/><path d="m45 27v2a2.006 2.006 0 0 1 -2 2h-22a2.006 2.006 0 0 1 -2-2v-2a2.006 2.006 0 0 1 2-2h22a2.006 2.006 0 0 1 2 2z" fill="#898890"/><path d="m43 14v11h-22v-11c0-.34.02-.67.05-1s.07-.67.13-1a11.19 11.19 0 0 1 .57-2 8.979 8.979 0 0 1 .45-1 10.081 10.081 0 0 1 .59-1 10.982 10.982 0 0 1 18.42 0 10.081 10.081 0 0 1 .59 1 8.979 8.979 0 0 1 .45 1 11.19 11.19 0 0 1 .57 2c.06.33.1.66.13 1s.05.66.05 1z" fill="#ff9811"/><path d="m42.95 31a10.865 10.865 0 0 1 -.36 2 11 11 0 0 1 -21.17 0 10.873 10.873 0 0 1 -.37-2z" fill="#ee8700"/><path d="m42.95 31a10.865 10.865 0 0 1 -.36 2h-21.17a10.873 10.873 0 0 1 -.37-2z" fill="#cc7400"/><path d="m51.89 31.96a1.477 1.477 0 0 1 -.01.21 20.037 20.037 0 0 1 -17.88 17.73 20.05 20.05 0 0 1 -4 0 20.037 20.037 0 0 1 -17.88-17.73 1.985 1.985 0 0 1 1.99-2.17 2.016 2.016 0 0 1 1.99 1.83 16.033 16.033 0 0 0 13.9 14.04 15.45 15.45 0 0 0 4 0 16.033 16.033 0 0 0 13.9-14.04 2.016 2.016 0 0 1 1.99-1.83 1.991 1.991 0 0 1 2 1.96z" fill="#c6c5ca"/><g fill="#ee8700"><path d="m35 20h8v2h-8z"/><path d="m35 16h8v2h-8z"/><path d="m43 14h-8v-2h7.82c.06.33.1.66.13 1s.05.66.05 1z"/><path d="m42.25 10h-7.25v-2h6.21a10.081 10.081 0 0 1 .59 1 8.979 8.979 0 0 1 .45 1z"/><path d="m21 20h8v2h-8z"/><path d="m21 16h8v2h-8z"/><path d="m29 12v2h-8c0-.34.02-.67.05-1s.07-.67.13-1z"/><path d="m29 8v2h-7.25a8.979 8.979 0 0 1 .45-1 10.081 10.081 0 0 1 .59-1z"/></g><path d="m50 14h-4v-2h3.586l2.707-2.707 1.414 1.414-3 3a1 1 0 0 1 -.707.293z" fill="#ffa733"/><path d="m52.293 24.707-2.707-2.707h-3.586v-2h4a1 1 0 0 1 .707.293l3 3z" fill="#ffa733"/><path d="m46 16h8v2h-8z" fill="#ffa733"/><path d="m18 14h-4a1 1 0 0 1 -.707-.293l-3-3 1.414-1.414 2.707 2.707h3.586z" fill="#ffa733"/><path d="m11.707 24.707-1.414-1.414 3-3a1 1 0 0 1 .707-.293h4v2h-3.586z" fill="#ffa733"/><path d="m10 16h8v2h-8z" fill="#ffa733"/><path d="m56 10a3 3 0 1 1 3-3 3 3 0 0 1 -3 3zm0-4a1 1 0 1 0 1 1 1 1 0 0 0 -1-1z" fill="#ff9811"/><path d="m59 20a3 3 0 1 1 3-3 3 3 0 0 1 -3 3zm0-4a1 1 0 1 0 1 1 1 1 0 0 0 -1-1z" fill="#ff9811"/><path d="m56 30a3 3 0 1 1 3-3 3 3 0 0 1 -3 3zm0-4a1 1 0 1 0 1 1 1 1 0 0 0 -1-1z" fill="#ff9811"/><path d="m8 10a3 3 0 1 1 3-3 3 3 0 0 1 -3 3zm0-4a1 1 0 1 0 1 1 1 1 0 0 0 -1-1z" fill="#ff9811"/><path d="m5 20a3 3 0 1 1 3-3 3 3 0 0 1 -3 3zm0-4a1 1 0 1 0 1 1 1 1 0 0 0 -1-1z" fill="#ff9811"/><path d="m8 30a3 3 0 1 1 3-3 3 3 0 0 1 -3 3zm0-4a1 1 0 1 0 1 1 1 1 0 0 0 -1-1z" fill="#ff9811"/><path d="m29.667 37.6a6.959 6.959 0 0 1 -2.334-1.385l1.334-1.49a4.951 4.951 0 0 0 1.666.988z" fill="#ffc477"/><path d="m32 38v-2a5.021 5.021 0 0 0 4.332-2.5l1.731 1a7.027 7.027 0 0 1 -6.063 3.5z" fill="#ffc477"/></g></svg>