<?xml version="1.0" encoding="iso-8859-1"?>
<!-- Generator: Adobe Illustrator 19.0.0, SVG Export Plug-In . SVG Version: 6.00 Build 0)  -->
<svg version="1.1" id="Capa_1" xmlns="http://www.w3.org/2000/svg" xmlns:xlink="http://www.w3.org/1999/xlink" x="0px" y="0px"
	 viewBox="0 0 496 496" style="enable-background:new 0 0 496 496;" xml:space="preserve">
<g>
	<g>
		<path d="M456,80H352v16h104c13.232,0,24,10.768,24,24v264H16V120c0-13.232,10.768-24,24-24h104V80H40C17.944,80,0,97.944,0,120
			v264v8v16c0,22.056,17.944,40,40,40h96v32h-32v16h288v-16h-32v-32h96c22.056,0,40-17.944,40-40v-16v-8V120
			C496,97.944,478.056,80,456,80z M344,480H152v-32h192V480z M480,408c0,13.232-10.768,24-24,24H40c-13.232,0-24-10.768-24-24v-8
			h464V408z"/>
	</g>
</g>
<g>
	<g>
		<path d="M400,191.992c0-13.232-10.768-24-24-24c-4.912,0-9.48,1.496-13.288,4.04L334.8,151.104c0.712-2.256,1.2-4.616,1.2-7.104
			c0-10.416-6.712-19.216-16-22.528V94.52c9.288-3.312,16-12.112,16-22.528c0-2.488-0.488-4.848-1.192-7.104L362.72,43.96
			c3.8,2.544,8.368,4.04,13.28,4.04c13.232,0,24-10.768,24-24S389.232,0,376,0s-24,10.768-24,24c0,2.488,0.488,4.848,1.192,7.104
			L325.28,52.032C321.48,49.496,316.912,48,312,48s-9.48,1.496-13.288,4.04L270.8,31.104c0.712-2.256,1.2-4.616,1.2-7.104
			c0-13.232-10.768-24-24-24s-24,10.768-24,24c0,2.488,0.488,4.84,1.192,7.104L197.28,52.04C193.48,49.496,188.912,48,184,48
			s-9.48,1.496-13.28,4.032l-27.912-20.928C143.512,28.848,144,26.488,144,24c0-13.232-10.768-24-24-24S96,10.768,96,24
			s10.768,24,24,24c4.912,0,9.48-1.496,13.288-4.04L161.2,64.888c-0.712,2.264-1.2,4.624-1.2,7.112c0,10.416,6.712,19.216,16,22.528
			v26.952c-9.288,3.312-16,12.112-16,22.528c0,2.488,0.488,4.848,1.2,7.104l-27.912,20.928C129.48,169.496,124.912,168,120,168
			c-13.232,0-24,10.768-24,24c0,10.416,6.712,19.216,16,22.528v26.952c-9.288,3.312-16,12.112-16,22.528c0,13.232,10.768,24,24,24
			c5.632,0,10.752-2.032,14.848-5.288l25.752,16.096c-0.368,1.664-0.6,3.4-0.6,5.184c0,13.232,10.768,24,24,24s24-10.768,24-24
			c0-2.024-0.328-3.968-0.808-5.848l24.712-16.472c4.264,3.888,9.88,6.32,16.096,6.32s11.832-2.432,16.096-6.32l24.712,16.472
			c-0.48,1.88-0.808,3.824-0.808,5.848c0,13.232,10.768,24,24,24s24-10.768,24-24c0-1.784-0.232-3.52-0.6-5.192l25.752-16.096
			C365.248,285.968,370.368,288,376,288c13.232,0,24-10.768,24-24c0-10.416-6.712-19.216-16-22.528V214.52
			C393.288,211.208,400,202.408,400,191.992z M376,16c4.408,0,8,3.584,8,8s-3.592,8-8,8c-4.408,0-8-3.584-8-8S371.592,16,376,16z
			 M120,32c-4.408,0-8-3.584-8-8s3.592-8,8-8s8,3.584,8,8S124.408,32,120,32z M312,64c4.408,0,8,3.584,8,8s-3.592,8-8,8
			c-4.408,0-8-3.584-8-8S307.592,64,312,64z M320,144c0,4.416-3.592,8-8,8c-4.408,0-8-3.584-8-8s3.592-8,8-8
			C316.408,136,320,139.584,320,144z M248,16c4.408,0,8,3.584,8,8s-3.592,8-8,8c-4.408,0-8-3.584-8-8S243.592,16,248,16z M208,72
			c0-2.488-0.488-4.84-1.192-7.104L234.72,43.96c3.8,2.544,8.368,4.04,13.28,4.04s9.48-1.496,13.288-4.04L289.2,64.896
			C288.488,67.16,288,69.512,288,72c0,10.416,6.712,19.216,16,22.528v26.952c-9.288,3.312-16,12.112-16,22.528
			c0,2.488,0.488,4.848,1.2,7.104l-27.912,20.928C257.48,169.496,252.912,168,248,168s-9.48,1.496-13.288,4.04L206.8,151.112
			c0.712-2.264,1.2-4.624,1.2-7.112c0-10.416-6.712-19.216-16-22.528V94.52C201.288,91.216,208,82.416,208,72z M256,192
			c0,4.416-3.592,8-8,8c-4.408,0-8-3.584-8-8s3.592-8,8-8S256,187.584,256,192z M184,64c4.408,0,8,3.584,8,8s-3.592,8-8,8
			s-8-3.584-8-8S179.592,64,184,64z M184,136c4.408,0,8,3.584,8,8s-3.592,8-8,8s-8-3.584-8-8S179.592,136,184,136z M120,184
			c4.408,0,8,3.584,8,8s-3.592,8-8,8s-8-3.584-8-8S115.592,184,120,184z M120,272c-4.408,0-8-3.584-8-8c0-4.416,3.592-8,8-8
			s8,3.584,8,8C128,268.416,124.408,272,120,272z M184,312c-4.408,0-8-3.584-8-8c0-4.416,3.592-8,8-8s8,3.584,8,8
			C192,308.416,188.408,312,184,312z M224,264c0,1.192,0.184,2.336,0.352,3.488l-26.04,17.36c-4.008-3-8.928-4.848-14.312-4.848
			c-5.632,0-10.752,2.032-14.848,5.288L143.4,269.192c0.368-1.672,0.6-3.408,0.6-5.192c0-10.416-6.712-19.216-16-22.528V214.52
			c9.288-3.312,16-12.112,16-22.528c0-2.488-0.488-4.84-1.192-7.104l27.912-20.936c3.8,2.552,8.368,4.048,13.28,4.048
			s9.48-1.496,13.28-4.032l27.912,20.936C224.488,187.152,224,189.512,224,192c0,10.416,6.712,19.216,16,22.528v26.952
			C230.712,244.784,224,253.584,224,264z M248,272c-4.408,0-8-3.584-8-8c0-4.416,3.592-8,8-8s8,3.584,8,8
			C256,268.416,252.408,272,248,272z M312,312c-4.408,0-8-3.584-8-8c0-4.416,3.592-8,8-8c4.408,0,8,3.584,8,8
			C320,308.416,316.408,312,312,312z M352,264.008c0,1.784,0.232,3.52,0.6,5.192l-25.752,16.096
			C322.752,282.032,317.632,280,312,280c-5.384,0-10.304,1.848-14.312,4.848l-26.04-17.36c0.168-1.152,0.352-2.296,0.352-3.488
			c0-10.416-6.712-19.216-16-22.528V214.52c9.288-3.312,16-12.112,16-22.528c0-2.488-0.488-4.848-1.192-7.104l27.912-20.936
			c3.8,2.552,8.368,4.048,13.28,4.048s9.48-1.496,13.28-4.032l27.912,20.936C352.488,187.16,352,189.512,352,192
			c0,10.416,6.712,19.216,16,22.528v26.952C358.712,244.792,352,253.592,352,264.008z M376,272c-4.408,0-8-3.584-8-8
			c0-4.416,3.592-8,8-8c4.408,0,8,3.584,8,8C384,268.416,380.408,272,376,272z M376,200c-4.408,0-8-3.584-8-8s3.592-8,8-8
			c4.408,0,8,3.584,8,8S380.408,200,376,200z"/>
	</g>
</g>
<g>
	<g>
		<rect x="48" y="128" width="32" height="16"/>
	</g>
</g>
<g>
	<g>
		<rect x="48" y="160" width="32" height="16"/>
	</g>
</g>
<g>
	<g>
		<rect x="48" y="304" width="32" height="16"/>
	</g>
</g>
<g>
	<g>
		<rect x="48" y="336" width="32" height="16"/>
	</g>
</g>
<g>
	<g>
		<rect x="416" y="128" width="32" height="16"/>
	</g>
</g>
<g>
	<g>
		<rect x="416" y="160" width="32" height="16"/>
	</g>
</g>
<g>
	<g>
		<rect x="368" y="336" width="16" height="16"/>
	</g>
</g>
<g>
	<g>
		<rect x="400" y="336" width="16" height="16"/>
	</g>
</g>
<g>
	<g>
		<rect x="432" y="336" width="16" height="16"/>
	</g>
</g>
<g>
</g>
<g>
</g>
<g>
</g>
<g>
</g>
<g>
</g>
<g>
</g>
<g>
</g>
<g>
</g>
<g>
</g>
<g>
</g>
<g>
</g>
<g>
</g>
<g>
</g>
<g>
</g>
<g>
</g>
</svg>
